<svg width="40" height="40" viewBox="0 0 40 40" fill="none" xmlns="http://www.w3.org/2000/svg">
<mask id="mask0_10_691" style="mask-type:alpha" maskUnits="userSpaceOnUse" x="0" y="0" width="40" height="40">
<rect width="40" height="40" fill="#D9D9D9"/>
</mask>
<g mask="url(#mask0_10_691)">
<path d="M30.0021 36.25C28.7293 36.25 27.647 35.8044 26.755 34.9133C25.8628 34.0219 25.4167 32.9397 25.4167 31.6667C25.4167 31.4586 25.4332 31.2432 25.4663 31.0204C25.4996 30.7974 25.5493 30.5918 25.6154 30.4038L13.2884 23.1858C12.8484 23.6239 12.3474 23.9662 11.7854 24.2129C11.2235 24.4599 10.6284 24.5833 10 24.5833C8.72696 24.5833 7.64474 24.1379 6.75335 23.2471C5.86224 22.3562 5.41669 21.2746 5.41669 20.0021C5.41669 18.7293 5.86224 17.6469 6.75335 16.755C7.64474 15.8628 8.72696 15.4167 10 15.4167C10.6284 15.4167 11.2235 15.5401 11.7854 15.7871C12.3474 16.0338 12.8484 16.3761 13.2884 16.8142L25.6154 9.59625C25.5493 9.40819 25.4996 9.20264 25.4663 8.97958C25.4332 8.75681 25.4167 8.54139 25.4167 8.33333C25.4167 7.06028 25.8621 5.97806 26.7529 5.08667C27.6438 4.19556 28.7254 3.75 29.9979 3.75C31.2707 3.75 32.3531 4.19542 33.245 5.08625C34.1372 5.97708 34.5834 7.05875 34.5834 8.33125C34.5834 9.60403 34.1378 10.6864 33.2467 11.5783C32.3553 12.4706 31.2731 12.9167 30 12.9167C29.3717 12.9167 28.7765 12.7932 28.2146 12.5462C27.6527 12.2996 27.1517 11.9572 26.7117 11.5192L14.3846 18.7371C14.4507 18.9251 14.5004 19.1303 14.5338 19.3525C14.5668 19.5747 14.5834 19.7894 14.5834 19.9967C14.5834 20.2039 14.5668 20.4197 14.5338 20.6442C14.5004 20.8686 14.4507 21.0749 14.3846 21.2629L26.7117 28.4808C27.1517 28.0428 27.6527 27.7004 28.2146 27.4538C28.7765 27.2068 29.3717 27.0833 30 27.0833C31.2731 27.0833 32.3553 27.5287 33.2467 28.4196C34.1378 29.3104 34.5834 30.3921 34.5834 31.6646C34.5834 32.9374 34.1379 34.0197 33.2471 34.9117C32.3563 35.8039 31.2746 36.25 30.0021 36.25ZM30 10.4167C30.5792 10.4167 31.0711 10.2142 31.4759 9.80917C31.8809 9.40444 32.0834 8.9125 32.0834 8.33333C32.0834 7.75417 31.8809 7.26222 31.4759 6.8575C31.0711 6.4525 30.5792 6.25 30 6.25C29.4209 6.25 28.9289 6.4525 28.5242 6.8575C28.1192 7.26222 27.9167 7.75417 27.9167 8.33333C27.9167 8.9125 28.1192 9.40444 28.5242 9.80917C28.9289 10.2142 29.4209 10.4167 30 10.4167ZM10 22.0833C10.5792 22.0833 11.0711 21.8808 11.4759 21.4758C11.8809 21.0711 12.0834 20.5792 12.0834 20C12.0834 19.4208 11.8809 18.9289 11.4759 18.5242C11.0711 18.1192 10.5792 17.9167 10 17.9167C9.42085 17.9167 8.92891 18.1192 8.52419 18.5242C8.11919 18.9289 7.91669 19.4208 7.91669 20C7.91669 20.5792 8.11919 21.0711 8.52419 21.4758C8.92891 21.8808 9.42085 22.0833 10 22.0833ZM30 33.75C30.5792 33.75 31.0711 33.5475 31.4759 33.1425C31.8809 32.7378 32.0834 32.2458 32.0834 31.6667C32.0834 31.0875 31.8809 30.5956 31.4759 30.1908C31.0711 29.7858 30.5792 29.5833 30 29.5833C29.4209 29.5833 28.9289 29.7858 28.5242 30.1908C28.1192 30.5956 27.9167 31.0875 27.9167 31.6667C27.9167 32.2458 28.1192 32.7378 28.5242 33.1425C28.9289 33.5475 29.4209 33.75 30 33.75Z" fill="#333333"/>
</g>
</svg>
