<svg width="40" height="40" viewBox="0 0 40 40" fill="none" xmlns="http://www.w3.org/2000/svg">
<mask id="mask0_10_688" style="mask-type:alpha" maskUnits="userSpaceOnUse" x="0" y="0" width="40" height="40">
<rect width="40" height="40" fill="#D9D9D9"/>
</mask>
<g mask="url(#mask0_10_688)">
<path d="M20 33.8779L18.1604 32.2242C15.3977 29.7178 13.1129 27.564 11.3063 25.7629C9.4996 23.9615 8.06794 22.3583 7.01127 20.9533C5.9546 19.5486 5.21641 18.2671 4.79669 17.1087C4.37669 15.9507 4.16669 14.7756 4.16669 13.5833C4.16669 11.2181 4.96419 9.23778 6.55919 7.6425C8.15446 6.0475 10.1347 5.25 12.5 5.25C13.955 5.25 15.33 5.59028 16.625 6.27083C17.92 6.95139 19.045 7.92736 20 9.19875C20.955 7.92736 22.08 6.95139 23.375 6.27083C24.67 5.59028 26.045 5.25 27.5 5.25C29.8653 5.25 31.8456 6.0475 33.4409 7.6425C35.0359 9.23778 35.8334 11.2181 35.8334 13.5833C35.8334 14.7756 35.6234 15.9507 35.2034 17.1087C34.7836 18.2671 34.0454 19.5486 32.9888 20.9533C31.9321 22.3583 30.5031 23.9615 28.7017 25.7629C26.9006 27.564 24.6132 29.7178 21.8396 32.2242L20 33.8779ZM20 30.5C22.6667 28.1006 24.8611 26.0439 26.5834 24.33C28.3056 22.6164 29.6667 21.1276 30.6667 19.8638C31.6667 18.5999 32.3611 17.4775 32.75 16.4967C33.1389 15.5161 33.3334 14.545 33.3334 13.5833C33.3334 11.9167 32.7778 10.5278 31.6667 9.41667C30.5556 8.30556 29.1667 7.75 27.5 7.75C26.1839 7.75 24.9675 8.12333 23.8509 8.87C22.7345 9.61694 21.8504 10.656 21.1988 11.9871H18.8013C18.1388 10.6451 17.252 9.60347 16.1409 8.86208C15.0297 8.12069 13.8161 7.75 12.5 7.75C10.8439 7.75 9.45766 8.30556 8.34127 9.41667C7.22488 10.5278 6.66669 11.9167 6.66669 13.5833C6.66669 14.545 6.86113 15.5161 7.25002 16.4967C7.63891 17.4775 8.33335 18.5999 9.33335 19.8638C10.3334 21.1276 11.6945 22.6138 13.4167 24.3221C15.1389 26.0304 17.3334 28.0897 20 30.5Z" fill="#333333"/>
</g>
</svg>
