<svg width="20" height="20" viewBox="0 0 20 20" fill="none" xmlns="http://www.w3.org/2000/svg">
<mask id="mask0_3_52" style="mask-type:alpha" maskUnits="userSpaceOnUse" x="0" y="0" width="20" height="20">
<rect width="20" height="20" fill="#D9D9D9"/>
</mask>
<g mask="url(#mask0_3_52)">
<path d="M9.80769 15.8334C9.62505 15.8334 9.47255 15.7722 9.35019 15.6499C9.22782 15.5275 9.16664 15.375 9.16664 15.1924V10.5449L4.66977 4.85904C4.55769 4.70946 4.54248 4.55668 4.62414 4.40071C4.70595 4.24473 4.83657 4.16675 5.01602 4.16675H14.9839C15.1634 4.16675 15.294 4.24473 15.3758 4.40071C15.4575 4.55668 15.4423 4.70946 15.3302 4.85904L10.8333 10.5449V15.1924C10.8333 15.375 10.7721 15.5275 10.6498 15.6499C10.5274 15.7722 10.3749 15.8334 10.1923 15.8334H9.80769ZM9.99998 10.2501L14.125 5.00008H5.87498L9.99998 10.2501Z" fill="#333333"/>
</g>
</svg>
